<svg width="80" height="84" viewBox="0 0 80 84" fill="none" xmlns="http://www.w3.org/2000/svg">
<rect width="80" height="84" rx="40" fill="#F0E4DE"/>
<rect width="80" height="80" rx="40" fill="#FEFCFC"/>
<path d="M40 17.5C35.5499 17.5 31.1998 18.8196 27.4997 21.2919C23.7996 23.7643 20.9157 27.2783 19.2127 31.3896C17.5097 35.501 17.0642 40.025 17.9323 44.3895C18.8005 48.7541 20.9434 52.7632 24.0901 55.9099C27.2368 59.0566 31.2459 61.1995 35.6105 62.0677C39.9751 62.9358 44.4991 62.4903 48.6104 60.7873C52.7217 59.0843 56.2357 56.2004 58.7081 52.5003C61.1804 48.8002 62.5 44.4501 62.5 40C62.4979 34.0333 60.1266 28.3116 55.9075 24.0925C51.6884 19.8734 45.9667 17.5022 40 17.5ZM51.475 48.565L50.59 49.285H29.41L28.525 48.565L26.5 38.47L27.85 37.525L31.945 40.06L39.295 30.715H40.705L48.055 40.06L52.15 37.525L53.5 38.47L51.475 48.565Z" fill="#713694"/>
</svg>
