<svg width="24" height="24" viewBox="0 0 24 24" fill="none" xmlns="http://www.w3.org/2000/svg">
<g clip-path="url(#clip0_287_7843)">
<path d="M13.9262 13.3928L18.0158 10.1891L18.6544 4.61173L13.9262 2.00879L12.0068 4.64651C13.0001 5.14527 13.7056 6.1409 13.7904 7.30247C13.8968 8.76358 13.0109 10.1239 11.6351 10.61C9.80697 11.2569 8.57837 13.002 8.57837 14.953V15.7911C8.57837 16.8829 9.46338 17.7679 10.5546 17.7679H13.4454L13.9262 13.3928Z" fill="#FE7D43"/>
<path d="M11.0355 0.367038C7.28657 0.120989 3.94431 2.83643 3.42643 6.54779C3.38045 6.8776 3.35706 7.2145 3.35706 7.54914C3.35706 8.64073 4.24202 9.52569 5.3336 9.52569H8.22427" fill="#FE7D43"/>
<path d="M13.4455 19.6787H10.5548C9.4632 19.6787 8.57825 20.5637 8.57825 21.6552V21.6716C8.57825 22.7632 9.4632 23.6481 10.5548 23.6481H13.0939" fill="#FE7D43"/>
<path d="M13.4455 17.7673C12.3539 17.7673 11.4689 16.8823 11.4689 15.7907V14.9524C11.4689 13.0014 12.6975 11.2563 14.526 10.6098C15.9014 10.1235 16.7877 8.76331 16.6812 7.30216C16.5645 5.70216 15.2691 4.41655 13.6679 4.31169C11.9743 4.1998 10.4654 5.42297 10.2322 7.09408C10.2113 7.24342 10.2008 7.39656 10.2008 7.54914C10.2008 8.64073 9.31581 9.52569 8.22423 9.52569C7.13264 9.52569 6.24768 8.64073 6.24768 7.54914C6.24768 7.2145 6.27102 6.87761 6.31706 6.54779C6.83498 2.83643 10.1773 0.120989 13.9262 0.367038C17.4852 0.600103 20.3645 3.458 20.6238 7.01472C20.8594 10.2474 18.8939 13.2583 15.8438 14.3368C15.5915 14.4259 15.4221 14.6734 15.4221 14.9524V15.7907C15.422 16.8824 14.5371 17.7673 13.4455 17.7673Z" fill="#FFD15B"/>
<path d="M13.4455 23.6481C12.3539 23.6481 11.469 22.7632 11.469 21.6716V21.6552C11.469 20.5637 12.3539 19.6787 13.4455 19.6787C14.5371 19.6787 15.4221 20.5637 15.4221 21.6552V21.6716C15.4221 22.7632 14.5372 23.6481 13.4455 23.6481Z" fill="#FFD15B"/>
<path d="M8.06424 6.54823C8.01783 6.87795 7.99515 7.21461 7.99515 7.5493C7.99515 8.32725 8.44435 9.00056 9.09789 9.32241C8.83431 9.45272 8.5381 9.5258 8.22418 9.5258C7.13325 9.5258 6.24768 8.64122 6.24768 7.5493C6.24768 7.21461 6.27135 6.87795 6.31776 6.54823C6.83512 2.83613 10.178 0.121198 13.9266 0.367012C14.0608 0.375872 14.1941 0.388716 14.3264 0.405497C11.1524 0.796485 8.5194 3.28833 8.06424 6.54823Z" fill="#FFC344"/>
<path d="M16.2733 10.6095C14.4449 11.2561 13.2158 13.0016 13.2158 14.9524V15.7906C13.2158 16.5685 13.666 17.2419 14.3196 17.5637C14.056 17.694 13.7598 17.7671 13.4459 17.7671C12.3539 17.7671 11.4694 16.8825 11.4694 15.7906V14.9524C11.4694 13.0016 12.6975 11.2562 14.5269 10.6095C15.9021 10.1228 16.7877 8.76328 16.6811 7.30218C16.5814 5.92793 15.6119 4.78567 14.3255 4.42529C14.6721 4.32756 15.0393 4.28706 15.4155 4.31176C17.0168 4.41639 18.3121 5.7018 18.4286 7.30218C18.5351 8.76328 17.6486 10.1228 16.2733 10.6095Z" fill="#FFC344"/>
<path d="M14.3195 23.4451C14.056 23.5754 13.7598 23.6485 13.4458 23.6485C12.3539 23.6485 11.4694 22.7639 11.4694 21.672V21.6552C11.4694 20.5643 12.3539 19.6787 13.4458 19.6787C13.7598 19.6787 14.056 19.7518 14.3195 19.8821C13.666 20.2049 13.2158 20.8782 13.2158 21.6552V21.672C13.2158 22.4499 13.666 23.1232 14.3195 23.4451Z" fill="#FFC344"/>
<path d="M20.9745 6.98916C20.7025 3.2584 17.6822 0.260721 13.9493 0.0162189C13.776 0.00487504 10.5526 0 10.5526 0C10.5494 0 10.5467 0.000140626 10.5438 0.000234377C9.29336 0.00389066 8.06255 0.319221 6.95549 0.923585C5.72619 1.59465 4.70796 2.58644 4.01088 3.7918C3.91366 3.95989 3.97108 4.17495 4.13917 4.27217C4.19463 4.30424 4.25514 4.31947 4.31486 4.31947C4.43627 4.31947 4.55435 4.25652 4.61951 4.14383C5.25204 3.05013 6.17628 2.15003 7.29239 1.54075C8.2148 1.03721 9.23209 0.755162 10.2702 0.709881C8.01816 1.76289 6.33191 3.89736 5.96891 6.49922C5.92063 6.84516 5.89616 7.19842 5.89616 7.54909C5.89616 8.18088 6.14952 8.75435 6.55949 9.17426H5.33337C4.43754 9.17426 3.70867 8.44521 3.70867 7.54909C3.70867 7.23118 3.73089 6.9106 3.77462 6.59654C3.82291 6.2513 3.89852 5.90719 3.99925 5.57376C4.05541 5.3879 3.95027 5.19173 3.76441 5.13552C3.57854 5.07932 3.38242 5.18451 3.32612 5.37037C3.21493 5.73834 3.13154 6.11813 3.0782 6.49932C3.02996 6.84563 3.00549 7.19884 3.00549 7.54909C3.00549 8.83291 4.04974 9.87739 5.33332 9.87739H8.22413C8.22483 9.87739 8.22544 9.87716 8.22614 9.87716C9.50898 9.87612 10.5523 8.83216 10.5523 7.54909C10.5523 7.41278 10.5618 7.27599 10.5804 7.14263C10.707 6.2355 11.2557 5.47772 12.0059 5.04538C12.8266 5.52318 13.3707 6.38222 13.4398 7.32756C13.5347 8.63144 12.7444 9.84476 11.5178 10.2781C9.54934 10.9746 8.22675 12.8532 8.22675 14.9526V15.7907C8.22675 17.0745 9.271 18.119 10.5546 18.119H13.4454V18.1189H13.4455C14.7292 18.1189 15.7736 17.0745 15.7736 15.7908V14.9524C15.7736 14.8221 15.8489 14.7079 15.961 14.6682C19.16 13.5371 21.2216 10.3794 20.9745 6.98916ZM8.92993 15.7907V14.9526C8.92993 13.1505 10.0642 11.5384 11.7522 10.941C13.2766 10.4024 14.259 8.89554 14.1411 7.27642C14.0679 6.27525 13.5672 5.35251 12.7914 4.73371C13.065 4.66921 13.3519 4.64319 13.645 4.66251C15.0721 4.75593 16.2266 5.90175 16.3306 7.3277C16.4256 8.6313 15.6354 9.84467 14.4089 10.2783C12.4401 10.9744 11.1174 12.8527 11.1174 14.9524V15.7907C11.1174 16.4225 11.3707 16.996 11.7807 17.4158H10.5546C9.65875 17.4159 8.92993 16.6868 8.92993 15.7907ZM15.7266 14.0053C15.3342 14.144 15.0705 14.5246 15.0705 14.9524V15.7907C15.0705 16.6867 14.3416 17.4157 13.4455 17.4157C12.5495 17.4157 11.8205 16.6867 11.8205 15.7907V14.9524C11.8205 13.1501 12.9549 11.5382 14.6432 10.9412C16.1677 10.4022 17.1499 8.89526 17.0319 7.27656C16.9025 5.50256 15.4663 4.07713 13.6911 3.96088C13.6113 3.95562 13.532 3.95305 13.4531 3.95305C11.6754 3.95305 10.1317 5.27071 9.88403 7.04551C9.86097 7.21098 9.84925 7.38043 9.84925 7.54909C9.84925 8.44511 9.12029 9.17407 8.22432 9.17407C7.32829 9.17407 6.59933 8.44511 6.59933 7.54909C6.59933 7.23071 6.62155 6.91023 6.66529 6.59635C7.15795 3.06598 10.3366 0.484223 13.9032 0.717849C17.2881 0.939523 20.0266 3.65759 20.2732 7.04026C20.4973 10.1154 18.6277 12.9796 15.7266 14.0053Z" fill="black"/>
<path d="M13.4456 19.3271H13.4455H10.5548C9.27107 19.3271 8.22668 20.3715 8.22668 21.6553V21.6717C8.22668 22.9554 9.27107 23.9998 10.5548 23.9998C10.5548 23.9998 13.5065 23.9993 13.5369 23.9981C13.7309 23.9912 13.8826 23.8283 13.8757 23.6342C13.8688 23.4402 13.7072 23.2881 13.5117 23.2955C13.4897 23.2963 13.4677 23.2966 13.4456 23.2966C12.5495 23.2966 11.8204 22.5676 11.8204 21.6715V21.6551C11.8204 20.7592 12.5495 20.0304 13.4456 20.0304C14.3414 20.0304 15.0703 20.7592 15.0703 21.6551V21.6715C15.0703 22.0512 14.9366 22.4207 14.6938 22.7121C14.5696 22.8613 14.5897 23.0829 14.7389 23.2072C14.888 23.3315 15.1097 23.3113 15.234 23.1622C15.5819 22.7447 15.7734 22.2153 15.7734 21.6715V21.6551C15.7734 20.3714 14.7291 19.3271 13.4456 19.3271ZM8.92982 21.6716V21.6552C8.92982 20.7592 9.65877 20.0302 10.5548 20.0302H11.7804C11.3706 20.45 11.1173 21.0234 11.1173 21.655V21.6714C11.1173 22.3032 11.3706 22.8766 11.7805 23.2966H10.5548C9.65873 23.2966 8.92982 22.5676 8.92982 21.6716Z" fill="black"/>
</g>
<defs>
<clipPath id="clip0_287_7843">
<rect width="24" height="24" fill="white"/>
</clipPath>
</defs>
</svg>
