<svg width="24" height="24" viewBox="0 0 24 24" fill="none" xmlns="http://www.w3.org/2000/svg">
<g clip-path="url(#clip0_287_7870)">
<path d="M7.35027 10.1289H2.89546C1.97766 10.1289 1.23364 10.8729 1.23364 11.7907V16.2455C1.23364 17.1633 1.97766 17.9073 2.89546 17.9073H7.35027C8.26806 17.9073 9.01208 17.1633 9.01208 16.2455V11.7907C9.01208 10.8729 8.26806 10.1289 7.35027 10.1289Z" fill="#6AA9FF"/>
<path d="M7.35027 0.328125H2.89546C1.97766 0.328125 1.23364 1.07214 1.23364 1.98994V6.44475C1.23364 7.36254 1.97766 8.10656 2.89546 8.10656H7.35027C8.26806 8.10656 9.01208 7.36254 9.01208 6.44475V1.98994C9.01208 1.07214 8.26806 0.328125 7.35027 0.328125Z" fill="#FF641A"/>
<path d="M17.1337 0.328125H12.6789C11.7611 0.328125 11.0171 1.07214 11.0171 1.98994V6.44475C11.0171 7.36254 11.7611 8.10656 12.6789 8.10656H17.1337C18.0515 8.10656 18.7955 7.36254 18.7955 6.44475V1.98994C18.7955 1.07214 18.0515 0.328125 17.1337 0.328125Z" fill="#FED843"/>
<path d="M16.374 18.5595V13.7875C16.374 13.5574 16.2826 13.3367 16.1199 13.174C15.9572 13.0113 15.7365 12.9199 15.5064 12.9199H14.5147C14.4008 12.9199 14.288 12.9423 14.1827 12.9859C14.0774 13.0295 13.9818 13.0934 13.9012 13.174C13.8207 13.2545 13.7568 13.3502 13.7132 13.4555C13.6696 13.5607 13.6472 13.6735 13.6472 13.7875V18.5595L12.0624 19.96C11.9358 20.0719 11.8399 20.2142 11.7838 20.3736C11.7277 20.5329 11.7133 20.704 11.7418 20.8705L12.2216 23.6721H22.4166L22.7456 22.0881C22.7925 21.8625 22.7594 21.6276 22.6519 21.4237C22.5443 21.2199 22.3692 21.0599 22.1565 20.9712L16.374 18.5595Z" fill="#FFDBCA"/>
<path d="M13.647 22.18C13.6039 22.18 13.5612 22.1716 13.5214 22.1551C13.4816 22.1386 13.4454 22.1144 13.4149 22.084C13.3844 22.0535 13.3603 22.0173 13.3438 21.9775C13.3273 21.9377 13.3188 21.895 13.3188 21.8519V19.6846C13.3188 19.5975 13.3534 19.5141 13.415 19.4525C13.4765 19.391 13.5599 19.3564 13.647 19.3564C13.734 19.3564 13.8175 19.391 13.879 19.4525C13.9405 19.5141 13.9751 19.5975 13.9751 19.6846V21.8519C13.9751 21.9389 13.9405 22.0224 13.879 22.0839C13.8175 22.1454 13.734 22.18 13.647 22.18Z" fill="#FDBDB1"/>
<path d="M5.56895 11.8496H3.96582C3.87881 11.8497 3.79538 11.8842 3.73386 11.9458C3.67233 12.0073 3.63774 12.0907 3.6377 12.1777V15.8589C3.63774 15.9459 3.67233 16.0294 3.73386 16.0909C3.79538 16.1524 3.87881 16.187 3.96582 16.187H5.56895C5.84476 16.1867 6.10918 16.077 6.3042 15.8819C6.49921 15.6869 6.6089 15.4224 6.6092 15.1466V14.73C6.60929 14.4649 6.50761 14.2098 6.32513 14.0175C6.50755 13.8251 6.60922 13.5701 6.6092 13.305V12.8889C6.6086 12.6133 6.49878 12.3492 6.3038 12.1543C6.10882 11.9595 5.84457 11.85 5.56895 11.8496ZM4.29395 12.5059H5.56895C5.67074 12.506 5.76833 12.5465 5.84031 12.6185C5.91229 12.6905 5.9528 12.7881 5.95295 12.8899V13.3065C5.9526 13.4082 5.91201 13.5055 5.84005 13.5774C5.76809 13.6492 5.67061 13.6896 5.56895 13.6897H4.29395V12.5059ZM5.9522 15.1475C5.95185 15.2491 5.91136 15.3464 5.83956 15.4182C5.76776 15.49 5.67048 15.5305 5.56895 15.5308H4.29395V14.346H5.56895C5.67074 14.3461 5.76833 14.3866 5.84031 14.4586C5.91229 14.5306 5.9528 14.6282 5.95295 14.73L5.9522 15.1475Z" fill="#FFF5F5"/>
<path d="M15.9174 5.72979H14.5524C14.3877 5.72949 14.2299 5.66392 14.1135 5.54744C13.9971 5.43096 13.9316 5.27309 13.9314 5.10841V3.32548C13.9316 3.16071 13.9972 3.00274 14.1137 2.88625C14.2302 2.76976 14.3882 2.70425 14.553 2.7041H15.918C16.005 2.7041 16.0884 2.66953 16.15 2.608C16.2115 2.54646 16.2461 2.463 16.2461 2.37598C16.2461 2.28895 16.2115 2.20549 16.15 2.14396C16.0884 2.08242 16.005 2.04785 15.918 2.04785H14.553C14.2142 2.0482 13.8894 2.18291 13.6499 2.42243C13.4103 2.66195 13.2755 2.98672 13.2751 3.32548V5.10841C13.2755 5.44717 13.4103 5.77194 13.6499 6.01146C13.8894 6.25098 14.2142 6.38569 14.553 6.38604H15.918C16.005 6.38604 16.0884 6.35147 16.15 6.28993C16.2115 6.2284 16.2461 6.14494 16.2461 6.05791C16.2461 5.97089 16.2115 5.88743 16.15 5.82589C16.0884 5.76436 16.005 5.72979 15.918 5.72979H15.9174Z" fill="#FFF5F5"/>
<path d="M5.33082 2.04785H4.91532C4.57658 2.0482 4.25181 2.18292 4.01229 2.42244C3.77276 2.66197 3.63804 2.98674 3.6377 3.32548V6.05791C3.6377 6.14494 3.67227 6.2284 3.7338 6.28993C3.79534 6.35147 3.8788 6.38604 3.96582 6.38604C4.05284 6.38604 4.1363 6.35147 4.19784 6.28993C4.25938 6.2284 4.29395 6.14494 4.29395 6.05791V4.93873H5.9522V6.05791C5.9522 6.14494 5.98677 6.2284 6.0483 6.28993C6.10984 6.35147 6.1933 6.38604 6.28032 6.38604C6.36734 6.38604 6.4508 6.35147 6.51234 6.28993C6.57388 6.2284 6.60845 6.14494 6.60845 6.05791V3.32548C6.60805 2.98675 6.47331 2.66201 6.2338 2.4225C5.99428 2.18298 5.66955 2.04825 5.33082 2.04785ZM4.29395 4.28248V3.32623C4.29414 3.16149 4.35967 3.00355 4.47616 2.88707C4.59265 2.77058 4.75058 2.70505 4.91532 2.70485H5.33082C5.49556 2.70505 5.65349 2.77058 5.76998 2.88707C5.88647 3.00355 5.952 3.16149 5.9522 3.32623V4.28248H4.29395Z" fill="#FFF5F5"/>
<path d="M13.647 17.9073V13.7872C13.6469 13.6733 13.6694 13.5605 13.713 13.4552C13.7565 13.3499 13.8204 13.2543 13.901 13.1737C13.9816 13.0931 14.0772 13.0292 14.1825 12.9856C14.2878 12.9421 14.4006 12.9196 14.5145 12.9197H15.5062C15.7363 12.9197 15.957 13.0111 16.1197 13.1738C16.2824 13.3365 16.3738 13.5571 16.3738 13.7872V17.9073H16.659C17.5768 17.9073 18.7955 17.1633 18.7955 16.2457V11.7907C18.7955 11.35 18.6204 10.9273 18.3088 10.6156C17.9971 10.304 17.5745 10.1289 17.1337 10.1289H12.6789C12.2382 10.1289 11.8155 10.304 11.5038 10.6156C11.1922 10.9273 11.0171 11.35 11.0171 11.7907V16.2457C11.0171 17.1633 11.2863 17.9073 12.204 17.9073H13.647Z" fill="#97DE3D"/>
<path d="M22.2827 20.6681L21.771 20.4547C21.7312 20.4381 21.6885 20.4296 21.6454 20.4295C21.6024 20.4294 21.5597 20.4378 21.5198 20.4542C21.48 20.4706 21.4438 20.4947 21.4132 20.5251C21.3827 20.5555 21.3584 20.5917 21.3419 20.6314C21.3253 20.6712 21.3167 20.7139 21.3166 20.757C21.3166 20.8001 21.325 20.8427 21.3414 20.8826C21.3578 20.9224 21.3819 20.9587 21.4123 20.9892C21.4427 21.0197 21.4788 21.044 21.5186 21.0605L22.0301 21.2737C22.1722 21.3333 22.2891 21.4405 22.361 21.5768C22.4328 21.7131 22.455 21.8702 22.4238 22.0211L22.1493 23.3437H12.4982L12.065 20.8147C12.0455 20.7033 12.055 20.5888 12.0925 20.4821C12.1301 20.3755 12.1945 20.2803 12.2795 20.2057L13.3188 19.287V21.8514C13.3188 21.9384 13.3534 22.0219 13.4149 22.0834C13.4765 22.145 13.5599 22.1795 13.647 22.1795C13.734 22.1795 13.8174 22.145 13.879 22.0834C13.9405 22.0219 13.9751 21.9384 13.9751 21.8514V13.7872C13.9753 13.6442 14.0322 13.5071 14.1333 13.406C14.2344 13.3049 14.3715 13.248 14.5145 13.2478H15.5062C15.6492 13.248 15.7863 13.3049 15.8874 13.406C15.9886 13.5071 16.0455 13.6442 16.0457 13.7872V18.5593C16.0457 18.624 16.0648 18.6873 16.1007 18.7412C16.1366 18.7951 16.1876 18.8372 16.2474 18.8621L19.8048 20.3458C19.8446 20.3624 19.8873 20.371 19.9303 20.3711C19.9734 20.3712 20.0161 20.3628 20.056 20.3464C20.0958 20.3301 20.1321 20.306 20.1626 20.2756C20.1932 20.2452 20.2174 20.2091 20.234 20.1693C20.2506 20.1296 20.2592 20.0869 20.2593 20.0438C20.2595 20.0008 20.2511 19.9581 20.2347 19.9182C20.2183 19.8784 20.1942 19.8421 20.1639 19.8116C20.1335 19.781 20.0974 19.7568 20.0576 19.7402L16.7013 18.3407V18.2334C17.8091 18.2113 19.1231 17.3334 19.1231 16.2459V11.7907C19.1225 11.2632 18.9127 10.7575 18.5398 10.3845C18.1669 10.0114 17.6612 9.80153 17.1337 9.80078H12.6789C12.1513 9.80138 11.6455 10.0112 11.2725 10.3843C10.8994 10.7573 10.6896 11.2631 10.689 11.7907V16.2457C10.689 17.9769 11.6381 18.2355 12.204 18.2355H13.3188V18.4113L11.8449 19.7139C11.6761 19.8624 11.5482 20.0517 11.4736 20.2638C11.399 20.4758 11.3801 20.7035 11.4187 20.925L11.8987 23.7266C11.9117 23.8029 11.9512 23.8722 12.0102 23.9222C12.0693 23.9722 12.1442 23.9998 12.2216 24H22.4163C22.4918 24 22.5649 23.974 22.6234 23.9263C22.6819 23.8787 22.7222 23.8124 22.7375 23.7386L23.0668 22.1546C23.1287 21.8543 23.0844 21.5419 22.9414 21.2707C22.7983 20.9995 22.5655 20.7865 22.2827 20.6681ZM12.204 17.5792C11.9471 17.5792 11.3452 17.5792 11.3452 16.2457V11.7907C11.3456 11.4371 11.4863 11.0981 11.7363 10.8481C11.9863 10.5981 12.3253 10.4574 12.6789 10.457H17.1337C17.4873 10.4574 17.8263 10.5981 18.0763 10.8481C18.3264 11.0981 18.467 11.4371 18.4674 11.7907V16.2457C18.4674 16.9207 17.4851 17.556 16.7019 17.5787V13.7872C16.7015 13.4702 16.5754 13.1663 16.3513 12.9422C16.1271 12.718 15.8232 12.5919 15.5062 12.5915H14.5145C14.1975 12.5919 13.8936 12.718 13.6694 12.9421C13.4453 13.1663 13.3192 13.4702 13.3188 13.7872V17.5792H12.204Z" fill="black"/>
<path d="M5.56895 11.8496H3.96582C3.87881 11.8497 3.79538 11.8842 3.73386 11.9458C3.67233 12.0073 3.63774 12.0907 3.6377 12.1777V15.8589C3.63774 15.9459 3.67233 16.0294 3.73386 16.0909C3.79538 16.1524 3.87881 16.187 3.96582 16.187H5.56895C5.84476 16.1867 6.10918 16.077 6.3042 15.8819C6.49921 15.6869 6.6089 15.4224 6.6092 15.1466V14.73C6.60929 14.4649 6.50761 14.2098 6.32513 14.0175C6.50755 13.8251 6.60922 13.5701 6.6092 13.305V12.8889C6.6086 12.6133 6.49878 12.3492 6.3038 12.1543C6.10882 11.9595 5.84457 11.85 5.56895 11.8496ZM4.29395 12.5059H5.56895C5.67074 12.506 5.76833 12.5465 5.84031 12.6185C5.91229 12.6905 5.9528 12.7881 5.95295 12.8899V13.3065C5.9526 13.4082 5.91201 13.5055 5.84005 13.5774C5.76809 13.6492 5.67061 13.6896 5.56895 13.6897H4.29395V12.5059ZM5.9522 15.1475C5.95185 15.2491 5.91136 15.3464 5.83956 15.4182C5.76776 15.49 5.67048 15.5305 5.56895 15.5308H4.29395V14.346H5.56895C5.67074 14.3461 5.76833 14.3866 5.84031 14.4586C5.91229 14.5306 5.9528 14.6282 5.95295 14.73L5.9522 15.1475Z" fill="black"/>
<path d="M14.5524 6.38604H15.9174C16.0044 6.38604 16.0879 6.35147 16.1494 6.28993C16.211 6.2284 16.2455 6.14494 16.2455 6.05791C16.2455 5.97089 16.211 5.88743 16.1494 5.82589C16.0879 5.76436 16.0044 5.72979 15.9174 5.72979H14.5524C14.3877 5.72949 14.2299 5.66392 14.1135 5.54744C13.9971 5.43096 13.9316 5.27309 13.9314 5.10841V3.32548C13.9316 3.16071 13.9972 3.00274 14.1137 2.88625C14.2302 2.76976 14.3882 2.70425 14.553 2.7041H15.918C16.005 2.7041 16.0884 2.66953 16.15 2.608C16.2115 2.54646 16.2461 2.463 16.2461 2.37598C16.2461 2.28895 16.2115 2.20549 16.15 2.14396C16.0884 2.08242 16.005 2.04785 15.918 2.04785H14.553C14.2142 2.0482 13.8894 2.18291 13.6499 2.42243C13.4103 2.66195 13.2755 2.98672 13.2751 3.32548V5.10841C13.2755 5.44707 13.4102 5.77176 13.6497 6.01126C13.8891 6.25077 14.2137 6.38554 14.5524 6.38604Z" fill="black"/>
<path d="M6.28032 6.38604C6.36734 6.38604 6.4508 6.35147 6.51234 6.28993C6.57388 6.2284 6.60845 6.14494 6.60845 6.05791V3.32548C6.60805 2.98675 6.47331 2.66201 6.2338 2.4225C5.99428 2.18298 5.66955 2.04825 5.33082 2.04785H4.91532C4.57658 2.0482 4.25181 2.18292 4.01229 2.42244C3.77276 2.66197 3.63804 2.98674 3.6377 3.32548V6.05791C3.6377 6.14494 3.67227 6.2284 3.7338 6.28993C3.79534 6.35147 3.8788 6.38604 3.96582 6.38604C4.05284 6.38604 4.1363 6.35147 4.19784 6.28993C4.25938 6.2284 4.29395 6.14494 4.29395 6.05791V4.93873H5.9522V6.05791C5.9522 6.14494 5.98677 6.2284 6.0483 6.28993C6.10984 6.35147 6.1933 6.38604 6.28032 6.38604ZM4.29395 4.28248V3.32623C4.29414 3.16149 4.35967 3.00355 4.47616 2.88707C4.59265 2.77058 4.75058 2.70505 4.91532 2.70485H5.33082C5.49556 2.70505 5.65349 2.77058 5.76998 2.88707C5.88647 3.00355 5.952 3.16149 5.9522 3.32623V4.28248H4.29395Z" fill="black"/>
<path d="M9.01196 4.20508C8.92494 4.20508 8.84148 4.23965 8.77994 4.30118C8.71841 4.36272 8.68384 4.44618 8.68384 4.5332V5.46527C8.68384 5.55229 8.71841 5.63575 8.77994 5.69729C8.84148 5.75882 8.92494 5.79339 9.01196 5.79339C9.09899 5.79339 9.18245 5.75882 9.24398 5.69729C9.30552 5.63575 9.34009 5.55229 9.34009 5.46527V4.5332C9.34011 4.49011 9.33164 4.44743 9.31516 4.40761C9.29868 4.36778 9.27451 4.3316 9.24404 4.30113C9.21356 4.27065 9.17738 4.24649 9.13756 4.23C9.09774 4.21352 9.05506 4.20505 9.01196 4.20508Z" fill="black"/>
<path d="M7.35008 0H2.89546C2.36787 0.000595521 1.86207 0.21044 1.48901 0.583497C1.11596 0.956554 0.906113 1.46236 0.905518 1.98994V6.44494C0.906113 6.9725 1.11596 7.47828 1.48903 7.85131C1.86209 8.22434 2.36789 8.43414 2.89546 8.43469H7.35008C7.72293 8.43621 8.0886 8.33229 8.40493 8.13493C8.72126 7.93757 8.97535 7.6548 9.13789 7.31925C9.15914 7.28034 9.17229 7.23753 9.17653 7.1934C9.18078 7.14927 9.17603 7.10474 9.16259 7.06249C9.14915 7.02024 9.12728 6.98116 9.09832 6.9476C9.06935 6.91403 9.03389 6.88669 8.99406 6.86721C8.95423 6.84774 8.91087 6.83653 8.8666 6.83428C8.82232 6.83203 8.77805 6.83877 8.73645 6.8541C8.69485 6.86943 8.65679 6.89303 8.62456 6.92348C8.59234 6.95393 8.56662 6.99059 8.54896 7.03125C8.43986 7.25612 8.26942 7.44558 8.0573 7.57779C7.84518 7.70999 7.60002 7.77954 7.35008 7.77844H2.89546C2.54189 7.77804 2.20292 7.63743 1.9529 7.38744C1.70288 7.13745 1.56221 6.7985 1.56177 6.44494V1.98994C1.56216 1.63634 1.70281 1.29735 1.95283 1.04732C2.20286 0.797288 2.54186 0.656647 2.89546 0.65625H7.35008C7.70366 0.656647 8.04264 0.797294 8.29263 1.04733C8.54263 1.29736 8.68323 1.63636 8.68358 1.98994V2.82431C8.68358 2.91134 8.71815 2.9948 8.77969 3.05633C8.84122 3.11787 8.92468 3.15244 9.01171 3.15244C9.09873 3.15244 9.18219 3.11787 9.24372 3.05633C9.30526 2.9948 9.33983 2.91134 9.33983 2.82431V1.98994C9.33928 1.46237 9.12948 0.95657 8.75645 0.583508C8.38343 0.210446 7.87764 0.000595611 7.35008 0Z" fill="black"/>
<path d="M7.35008 9.80078H2.89546C2.36787 9.80138 1.86207 10.0112 1.48901 10.3843C1.11596 10.7573 0.906113 11.2631 0.905518 11.7907V16.2457C0.906113 16.7733 1.11596 17.2791 1.48903 17.6521C1.86209 18.0251 2.36789 18.2349 2.89546 18.2355H7.35008C7.87769 18.235 8.38357 18.0253 8.75669 17.6522C9.1298 17.2792 9.33966 16.7733 9.34021 16.2457V11.7907C9.33966 11.2631 9.1298 10.7572 8.7567 10.3842C8.38359 10.0111 7.87771 9.80128 7.35008 9.80078ZM8.68358 16.2457C8.68318 16.5993 8.54256 16.9382 8.29257 17.1882C8.04257 17.4382 7.70362 17.5788 7.35008 17.5792H2.89546C2.54189 17.5788 2.20292 17.4382 1.9529 17.1882C1.70288 16.9382 1.56221 16.5993 1.56177 16.2457V11.7907C1.56216 11.4371 1.70281 11.0981 1.95283 10.8481C2.20286 10.5981 2.54186 10.4574 2.89546 10.457H7.35008C7.70366 10.4574 8.04264 10.5981 8.29263 10.8481C8.54263 11.0981 8.68323 11.4371 8.68358 11.7907V16.2457Z" fill="black"/>
<path d="M12.6789 8.43469H17.1337C17.6613 8.43414 18.1671 8.22434 18.5401 7.85131C18.9132 7.47828 19.1231 6.9725 19.1237 6.44494V1.98994C19.1231 1.46236 18.9132 0.956554 18.5402 0.583497C18.1671 0.21044 17.6613 0.000595521 17.1337 0L12.6789 0C12.1513 0.000595521 11.6455 0.21044 11.2725 0.583497C10.8994 0.956554 10.6896 1.46236 10.689 1.98994V6.44494C10.6896 6.9725 10.8994 7.47828 11.2725 7.85131C11.6455 8.22434 12.1513 8.43414 12.6789 8.43469ZM11.3452 1.98994C11.3456 1.63634 11.4863 1.29735 11.7363 1.04732C11.9863 0.797288 12.3253 0.656647 12.6789 0.65625H17.1337C17.4873 0.656647 17.8263 0.797288 18.0763 1.04732C18.3264 1.29735 18.467 1.63634 18.4674 1.98994V6.44494C18.467 6.7985 18.3263 7.13745 18.0763 7.38744C17.8262 7.63743 17.4873 7.77804 17.1337 7.77844H12.6789C12.3253 7.77804 11.9864 7.63743 11.7363 7.38744C11.4863 7.13745 11.3457 6.7985 11.3452 6.44494V1.98994Z" fill="black"/>
</g>
<defs>
<clipPath id="clip0_287_7870">
<rect width="24" height="24" fill="white"/>
</clipPath>
</defs>
</svg>
